<?xml version="1.0" encoding="UTF-8" standalone="no"?>
<!-- Created with Inkscape (http://www.inkscape.org/) -->

<svg
   xmlns:dc="http://purl.org/dc/elements/1.1/"
   xmlns:cc="http://creativecommons.org/ns#"
   xmlns:rdf="http://www.w3.org/1999/02/22-rdf-syntax-ns#"
   xmlns:svg="http://www.w3.org/2000/svg"
   xmlns="http://www.w3.org/2000/svg"
   xmlns:xlink="http://www.w3.org/1999/xlink"
   xmlns:sodipodi="http://sodipodi.sourceforge.net/DTD/sodipodi-0.dtd"
   xmlns:inkscape="http://www.inkscape.org/namespaces/inkscape"
   width="210mm"
   height="297mm"
   viewBox="0 0 210 297"
   version="1.1"
   id="svg1448"
   inkscape:version="0.92.2 (5c3e80d, 2017-08-06)"
   sodipodi:docname="rysunek-1mdd.svg">
  <defs
     id="defs1442" />
  <sodipodi:namedview
     id="base"
     pagecolor="#ffffff"
     bordercolor="#666666"
     borderopacity="1.0"
     inkscape:pageopacity="0.0"
     inkscape:pageshadow="2"
     inkscape:zoom="0.99841638"
     inkscape:cx="419.05077"
     inkscape:cy="493.94525"
     inkscape:document-units="mm"
     inkscape:current-layer="layer1"
     showgrid="false"
     inkscape:window-width="1366"
     inkscape:window-height="705"
     inkscape:window-x="-8"
     inkscape:window-y="-8"
     inkscape:window-maximized="1" />
  <metadata
     id="metadata1445">
    <rdf:RDF>
      <cc:Work
         rdf:about="">
        <dc:format>image/svg+xml</dc:format>
        <dc:type
           rdf:resource="http://purl.org/dc/dcmitype/StillImage" />
        <dc:title></dc:title>
      </cc:Work>
    </rdf:RDF>
  </metadata>
  <g
     inkscape:label="Layer 1"
     inkscape:groupmode="layer"
     id="layer1">
    <path
       style="fill:#008080;stroke-width:1.38269913"
       d="m 539.62305,155.39453 c -0.66467,-0.0198 -1.32011,-0.0134 -1.9668,0.0195 -5.10489,0.25969 -15.93586,9.13081 -20.23437,16.57227 -2.42595,4.20056 -3.26756,5.29008 -5.93946,5.0664 v 7.9043 h -0.0781 c -0.0192,1.13743 -0.5336,2.97538 -1.50391,6.11133 -3.48472,11.26254 -2.71887,16.85579 3.86523,28.21289 5.58089,9.62428 6.10356,10.17511 21.03126,22 12.90899,10.22584 16.76305,12.69389 24.58203,15.74414 16.16813,6.30711 24.61664,4.15917 31.79687,-8.08398 0.89674,-1.52888 1.55166,-2.42511 2.18164,-2.84571 0.25552,-0.63458 0.77236,-1.21929 1.50196,-1.69922 -0.0496,-0.26742 -0.0751,-0.54137 -0.0762,-0.8164 9.7e-4,-1.91124 1.1624,-3.48247 2.63477,-3.56446 l 3.88281,-7.35156 c 5.85853,-11.09469 6.68793,-15.13971 4.86328,-23.67968 -2.31265,-10.82401 -8.79953,-18.82436 -26.79492,-33.04297 -17.67086,-13.9627 -29.77607,-20.24919 -39.74609,-20.54688 z m 1.11718,5.49805 c 3.88959,0.0422 9.04507,1.21929 13.99024,3.42773 12.08149,5.39504 35.20347,23.54529 41.17773,32.32227 4.85832,7.13788 6.66026,13.33173 4.34375,14.9375 -2.30464,1.59747 -16.17653,-2.57518 -24.99609,-7.51953 -8.98477,-5.03658 -27.18123,-19.44915 -32.74024,-25.93164 -5.57765,-6.50443 -9.03226,-13.19628 -7.86132,-15.22657 0.80134,-1.38947 3.0607,-2.04262 6.08593,-2.00976 z m -11.49218,7.01953 c 0.1056,0.0161 0.20351,0.0628 0.29492,0.14062 0.47365,0.40364 1.44687,2.24407 2.16211,4.0918 2.59778,6.7053 15.93485,20.39926 29.54297,30.33789 14.10962,10.30366 25.20356,15.18391 34.42968,15.13867 2.85857,-0.0133 5.29823,0.35913 5.41993,0.82813 0.53745,2.06987 -11.96337,22.84477 -16.60157,27.58984 -6.63076,6.78342 -9.89629,7.34329 -20.14062,3.45117 -6.06988,-2.30603 -11.93952,-5.84416 -20.9707,-12.63867 -17.75672,-13.35993 -26.04433,-23.39823 -26.64063,-32.26758 -0.59223,-8.80854 9.23029,-37.17141 12.50391,-36.67187 z m 16.27343,1.83789 c -0.41114,-0.0309 -0.6553,0.18279 -0.63281,0.64844 0.0452,0.93099 1.14051,2.53044 2.4336,3.55468 1.29312,1.02466 2.31255,1.10122 2.26757,0.16993 -0.0452,-0.93107 -1.14046,-2.53035 -2.43359,-3.55469 -0.64658,-0.51233 -1.22362,-0.78743 -1.63477,-0.81836 z m -17.05468,4.75195 c -0.3229,0.0217 -0.66147,0.27529 -0.9375,0.75391 -0.55197,0.95716 -0.47473,2.15794 0.17187,2.66992 0.64664,0.51198 1.45023,0.45769 1.78321,-0.11914 0.33299,-0.57751 0.25574,-1.77986 -0.17188,-2.67187 -0.214,-0.44548 -0.5228,-0.6545 -0.8457,-0.63282 z m -24.07813,1.58985 c -6.1498,0.018 -10.39549,3.86121 -16.05664,13.7207 -3.18274,5.54282 -6.83904,13.91559 -8.12695,18.60742 -3.19408,11.63579 -3.47622,32.49643 -0.51953,38.41016 2.31662,4.63332 2.29861,4.70344 -3.12305,12.54883 -2.99856,4.33895 -8.51476,12.41499 -12.25781,17.94726 -15.97705,23.61405 -37.23514,46.13196 -50.57031,53.56836 -10.41113,5.80568 -19.45745,7.78543 -53.7754,11.76758 -33.32023,3.86633 -41.2738,5.39503 -55.76562,10.7207 -31.48789,11.5719 -43.84622,24.29086 -77.03125,79.27539 -33.25276,55.09663 -64.21426,134.09929 -88.68621,199.82355 -18.78204,50.44279 -25.43,79.09003 -11.47395,106.6452 8.70082,17.17894 25.16353,36.65275 48.7461,57.66016 h 0.002 c 18.10789,16.1301 51.03387,40.98315 67.75391,51.14062 27.12356,16.47761 46.58946,21.2038 63.6914,15.46485 20.91739,-7.01923 58.57334,-37.05179 89.91407,-71.71289 71.68986,-79.28478 126.45492,-166.59478 136.80078,-218.09375 4.54809,-22.63907 3.37313,-49.60603 -3.5586,-81.60156 -10.99415,-50.74685 -12.56128,-59.3185 -12.46679,-68.17579 0.0561,-5.24333 1.48146,-13.79794 3.16796,-19.00976 3.68164,-11.37778 18.87205,-47.41592 30.70118,-72.83594 l 8.57031,-18.41797 7.26367,-0.75195 c 4.25148,-0.43952 9.76363,-2.5305 13.28906,-5.04102 13.76629,-9.80358 29.96752,-35.09447 28.71094,-44.81836 -0.67635,-5.23312 -2.28429,-9.90236 -4.74219,-13.84179 -1.16593,1.10283 -3.17449,1.77014 -5.33203,1.77148 -0.2994,-8.3e-4 -0.59832,-0.0145 -0.89453,-0.041 0.7716,1.73478 1.50956,3.79593 2.04297,5.84961 1.69277,6.51692 1.61143,8.7247 -0.44531,12.25195 -6.37501,10.92987 -19.83762,10.38188 -40.77344,-1.65625 v 0.002 c -16.28871,-9.36716 -41.33798,-29.58657 -50.5957,-40.83984 -12.40237,-15.07549 -15.17578,-22.36973 -12.47266,-32.8125 1.62604,-6.2817 6.12062,-10.66953 10.77539,-10.89453 v -6.41016 c -0.96595,-0.14714 -1.88317,-0.22328 -2.76172,-0.2207 z m 64.01367,7.13672 c -0.54043,-0.0551 0.0309,0.68042 1.44532,1.80078 1.61639,1.28033 2.42218,1.55163 1.79296,0.60156 -0.62946,-0.95007 -1.95058,-1.99787 -2.9375,-2.32813 -0.12334,-0.0413 -0.22357,-0.0663 -0.30078,-0.0742 z M 533,187.48047 c -0.34235,0.0237 -0.64305,0.19078 -0.82031,0.49805 -0.35452,0.61445 -0.41036,1.30309 -0.125,1.52929 0.28505,0.22621 1.13496,0.16697 1.88867,-0.13086 0.75405,-0.29791 0.80981,-0.9852 0.125,-1.52734 -0.34231,-0.27146 -0.72601,-0.3928 -1.06836,-0.36914 z m 9.30273,5.55469 c -0.63952,0.0508 -1.44713,0.71366 -2.03711,1.75586 -1.15715,2.04302 -1.02659,2.37823 0.67579,1.7539 2.72076,-0.99697 3.40459,-2.18088 1.93164,-3.34765 -0.16165,-0.12806 -0.35714,-0.17905 -0.57032,-0.16211 z m -15.82421,1.26562 c -0.83594,0.0995 -1.90012,0.9201 -2.51954,1.99414 -0.70832,1.228 -0.5805,2.34191 0.28516,2.47461 0.86547,0.13278 2.15339,-0.76463 2.86133,-1.99219 0.70832,-1.22785 0.58051,-2.34191 -0.28516,-2.47461 -0.10818,-0.0166 -0.22237,-0.0162 -0.34179,-0.002 z m 48.3496,0.23438 c -0.60415,0.0874 -0.1249,1.55749 1.44922,3.84375 h -0.002 c 1.15068,1.67966 2.47163,3.02633 2.93164,2.99609 1.10699,-0.0664 -1.03238,-4.545 -2.88476,-6.04883 -0.72173,-0.58481 -1.21952,-0.83075 -1.49415,-0.79101 z m 19.72461,7.92187 c -0.32292,0.0217 -0.6615,0.27338 -0.9375,0.75195 -0.55234,0.95723 -0.47476,2.1599 0.17188,2.67188 0.64664,0.51199 1.44865,0.45769 1.78125,-0.11914 0.33347,-0.57751 0.25532,-1.77987 -0.17188,-2.67188 -0.21401,-0.44547 -0.52082,-0.65451 -0.84375,-0.63281 z m -38.2832,3.8457 c -1.87032,-0.0437 -3.8889,2.16208 -4.24805,4.91016 -0.45626,3.48985 2.67774,3.0533 4.82618,-0.67187 1.27166,-2.20477 1.34325,-3.61924 0.20898,-4.07618 -0.25584,-0.10299 -0.51992,-0.15586 -0.78711,-0.16211 z m -20.82422,4.48243 c -0.31218,0.0115 -0.48366,0.19153 -0.46679,0.55273 0.0452,0.93107 0.81355,2.27049 1.70703,2.97852 0.89359,0.70793 2.24192,1.04392 2.99609,0.74609 0.78028,-0.30802 0.0454,-1.59028 -1.70703,-2.97852 -1.09531,-0.8676 -2.00899,-1.318 -2.5293,-1.29882 z m -46.8125,0.18945 c 0.23339,-0.0238 2.72958,3.94368 5.54688,8.81836 8.02552,13.88655 19.85005,25.90097 41.00781,41.66601 20.5522,15.31361 34.92366,22.87062 46.98047,24.70508 4.11375,0.62524 7.39054,1.28836 7.2832,1.47461 -0.98589,1.70952 -13.61081,10.12733 -18.02148,12.01563 -6.41915,2.74826 -12.43615,1.25616 -25.06446,-6.21289 -28.42201,-16.8105 -54.22812,-40.89054 -57.55664,-53.70703 -1.25253,-4.82281 -1.39823,-28.63535 -0.17578,-28.75977 z m 86.14844,7.81445 c -0.24978,-0.0897 -0.53418,0.18816 -0.89648,0.81641 -0.5418,0.9414 -0.81278,2.38312 -0.59961,3.20508 0.21271,0.82188 0.92271,1.07688 1.57812,0.5664 0.65745,-0.50987 0.92503,-1.95243 0.59961,-3.20507 -0.21694,-0.83652 -0.43186,-1.29313 -0.68164,-1.38282 z m 14.85156,2.16797 c -0.41114,-0.0309 -0.6553,0.18313 -0.63281,0.64844 0.0452,0.93099 1.14054,2.53042 2.43359,3.55469 1.29317,1.02457 2.31451,1.10114 2.26953,0.16992 -0.0451,-0.93107 -1.14046,-2.53035 -2.43359,-3.55469 -0.64658,-0.51233 -1.22558,-0.78751 -1.63672,-0.81836 z m -48.51367,5.84961 c -0.3229,0.0217 -0.6615,0.27529 -0.9375,0.75391 -0.55204,0.95708 -0.47473,2.15794 0.17188,2.66992 0.64663,0.51198 1.44865,0.45769 1.78125,-0.11914 0.33346,-0.57736 0.25596,-1.77979 -0.17188,-2.67188 -0.21402,-0.44547 -0.52085,-0.6545 -0.84375,-0.63281 z m 28.25195,1.13281 c -0.1929,0.0135 -0.37307,0.13713 -0.51367,0.38086 -0.37553,0.65103 -0.15441,1.60325 0.49219,2.11524 0.64664,0.515 1.30446,0.71014 1.46094,0.43945 0.15673,-0.2716 -0.0663,-1.22322 -0.49414,-2.11523 -0.26715,-0.55751 -0.62381,-0.84272 -0.94532,-0.82032 z m 16.88282,4.69922 c -0.57447,-0.0689 -1.23056,0.31718 -1.64453,1.03516 -0.55291,0.95836 -0.29536,1.84852 0.57031,1.98047 0.86547,0.13278 1.84513,-0.23102 2.17773,-0.8086 0.33313,-0.57735 0.0783,-1.47044 -0.56836,-1.98242 -0.16165,-0.12807 -0.34367,-0.20165 -0.53515,-0.22461 z m -10.29297,3.00391 c -0.20417,0.003 -0.41162,0.0156 -0.62305,0.0371 -2.83691,0.28909 -2.92534,0.43391 -1.13086,1.85547 2.14311,1.69761 5.06084,1.1242 4.53711,-0.89063 -0.15963,-0.6145 -1.35404,-1.02439 -2.7832,-1.00195 z m -15.43164,0.33398 c -0.72719,0.0525 -1.58877,0.62824 -2.03516,1.40235 -0.94828,1.64415 0.16728,3.24909 2.11914,3.05078 1.63982,-0.16672 1.83689,-4.19527 0.2168,-4.44336 -0.0968,-0.0148 -0.1969,-0.0173 -0.30078,-0.01 z m -73.79102,23.59961 c 0.29741,-0.0702 1.48153,1.11991 2.63281,2.64258 2.05565,2.72082 1.91298,3.04856 -8.0957,18.53711 -14.26881,22.08112 -35.15648,51.18065 -43.45508,60.53906 -13.07667,14.74688 -28.94962,20.70799 -80.64453,30.29102 -31.7167,5.87939 -50.86515,13.00405 -65.46094,24.35351 C 265.47313,416.3441 220.32836,494.55452 175.89453,596.58789 141.77059,674.94668 137.06333,705.4604 154.38867,736 c 20.51061,36.15413 82.5676,86.70905 118.32422,96.39258 20.03074,5.42475 30.93753,1.6916 58.23828,-19.9375 29.16139,-23.10327 58.33428,-55.69777 100.50391,-112.29102 19.51702,-26.19227 59.71881,-95.84891 66.5,-115.22265 10.74867,-30.70848 11.77262,-56.01905 4.67187,-115.51172 -5.52567,-46.2946 -5.93094,-61.79449 -1.95703,-74.93946 3.43869,-11.37437 20.9703,-48.8972 32.42578,-69.40234 l 10.82813,-19.38477 3.98437,1.85352 c 2.19096,1.01884 4.01614,2.03822 4.05469,2.26367 0.04,0.22561 -4.52945,9.93735 -10.1543,21.58203 -5.62484,11.64484 -13.64456,29.07578 -17.82226,38.73633 -19.26221,44.54279 -19.57097,48.87821 -7.41797,104.19141 15.1254,68.84194 13.12281,92.92636 -12.04102,144.82226 -24.32201,50.15966 -79.08153,124.43968 -131.25195,178.04102 -15.77134,16.20389 -46.43976,40.86946 -61.04883,49.09961 -9.86255,5.55583 -22.52499,7.63977 -32.24218,5.30273 -8.2125,-1.97518 -23.65294,-9.30798 -35.91211,-17.05468 -24.00046,-15.16664 -60.98466,-45.09804 -80.45508,-65.11329 -9.87486,-10.15113 -21.94981,-25.97921 -25.93555,-33.99804 -4.3028,-8.65671 -7.61993,-21.9153 -7.79492,-31.15821 -0.50346,-26.58572 12.30465,-66.95119 43.875,-138.27734 22.17886,-50.10811 29.25643,-64.02019 57.49805,-113.04883 24.42659,-42.40437 29.54814,-50.55498 37.38867,-59.49023 21.22199,-24.18535 41.88442,-33.02058 91.91015,-39.30469 34.00319,-4.27146 46.99925,-7.25442 57.69532,-13.24023 15.30878,-8.56714 31.96504,-27.02584 53.08398,-58.82813 8.17387,-12.30898 15.10294,-22.43798 15.40039,-22.50586 z m 5.21875,7.94336 20.69141,16.39063 c 11.38015,9.01472 22.30223,17.12217 24.27148,18.01953 l 3.58203,1.63086 -7.11718,14.26953 c -15.28744,30.64871 -24.98772,51.3421 -30.71094,65.51367 -5.29474,13.1105 -6.03326,16.39567 -6.50781,28.99805 -0.29443,7.81704 0.71674,24.71705 2.24609,37.55664 8.80464,73.91626 8.46433,99.99942 -1.70899,131.1914 -3.3732,10.34249 -7.60234,18.52672 -26.83398,51.92578 -23.65678,41.08305 -30.90158,51.81816 -59.7207,88.49024 -32.31565,41.12141 -57.62494,67.80436 -83.23438,87.75195 -18.88632,14.71087 -25.21709,18.10522 -36.52734,19.58203 -13.1778,1.72075 -24.4637,-2.57473 -47.92188,-18.24023 -24.29973,-16.22721 -57.36676,-44.25511 -71.37695,-60.49805 -20.40309,-23.6544 -24.96744,-41.76793 -18.68945,-74.17383 4.64338,-23.96866 22.53972,-69.1474 55.41797,-139.90625 5.45876,-11.7482 20.33931,-39.09376 37.10547,-68.18554 24.45947,-42.44096 29.07722,-49.76253 36.5957,-58.01758 18.81904,-20.66256 34.99263,-27.5634 90.06836,-38.42969 29.12316,-5.74605 47.457,-11.56985 56.64258,-17.99414 10.90208,-7.62475 29.05462,-31.0298 51.05468,-65.82812 z m -133.82226,121.6875 c -1.60684,0.0287 -3.48886,0.21841 -5.71485,0.55078 -13.64057,2.03679 -44.24919,21.66713 -45.20703,28.99219 -0.94702,7.24286 14.27485,7.17578 33.20703,-0.14648 19.45788,-7.52546 30.51547,-17.76776 26.7207,-24.74805 -1.82965,-3.36546 -4.18534,-4.73448 -9.00585,-4.64844 z m -0.30079,3.66797 c 5.15576,0.0792 7.53607,2.31181 6.09571,6.0957 -2.38205,6.2578 -27.35007,19.27756 -42.03321,21.91797 -4.04842,0.72851 -8.65743,1.03988 -10.24414,0.69141 -2.48496,-0.54569 -2.65575,-1.03201 -1.23242,-3.5 4.54475,-7.88032 31.01668,-23.06835 43.41406,-24.9082 1.47233,-0.21851 2.81021,-0.31515 4,-0.29688 z"
       id="path2004"
       inkscape:connector-curvature="0"
       sodipodi:nodetypes="ccccccccccccccccsccsccccccsccccccccccccccccccccccccccccccccsscccscccscccccccccccccccccccccccccccccccccccsccccsccccccccccccccccccccccccccccccccsccccssccccssccccsccccccccccccccccccccccccscccscccccccccccccscsccccscsccccccccccccccccsscccccccccccsccccsccccccc"
       transform="scale(0.26458333)" />
    <flowRoot
       xml:space="preserve"
       style="font-style:normal;font-weight:normal;font-size:10.58333302px;line-height:1.25;font-family:sans-serif;letter-spacing:0px;word-spacing:0px;fill:#000000;fill-opacity:1;stroke:none;stroke-width:0.26458332"
       id="flowRoot2017"><flowRegion
         id="flowRegion2019"><use
           x="0"
           y="0"
           xlink:href="#path2004"
           id="use2021" /></flowRegion><flowPara
         id="flowPara2023">LIST</flowPara></flowRoot>    <flowRoot
       xml:space="preserve"
       id="flowRoot2029"
       style="fill:black;fill-opacity:1;stroke:none;font-family:sans-serif;font-style:normal;font-weight:normal;font-size:40px;line-height:1.25;letter-spacing:0px;word-spacing:0px"><flowRegion
         id="flowRegion2031"><rect
           id="rect2033"
           width="529.12561"
           height="562.72089"
           x="144.87962"
           y="362.42657" /></flowRegion><flowPara
         id="flowPara2035"></flowPara></flowRoot>    <flowRoot
       xml:space="preserve"
       style="font-style:normal;font-weight:normal;font-size:10.58333302px;line-height:1.25;font-family:sans-serif;letter-spacing:0px;word-spacing:0px;fill:#000000;fill-opacity:1;stroke:none;stroke-width:0.26458332"
       id="flowRoot2037"><flowRegion
         id="flowRegion2039"><use
           x="0"
           y="0"
           xlink:href="#path2004"
           id="use2041" /></flowRegion><flowPara
         id="flowPara2043">FWFW</flowPara></flowRoot>    <flowRoot
       xml:space="preserve"
       id="flowRoot2049"
       style="fill:black;fill-opacity:1;stroke:none;font-family:sans-serif;font-style:normal;font-weight:normal;font-size:64px;line-height:1.25;letter-spacing:0px;word-spacing:0px"><flowRegion
         id="flowRegion2051"><rect
           id="rect2053"
           width="485.0318"
           height="193.17284"
           x="304.45718"
           y="528.30322" /></flowRegion><flowPara
         id="flowPara2055"></flowPara></flowRoot>    <flowRoot
       xml:space="preserve"
       id="flowRoot2057"
       style="fill:black;fill-opacity:1;stroke:none;font-family:sans-serif;font-style:normal;font-weight:normal;font-size:64px;line-height:1.25;letter-spacing:0px;word-spacing:0px"><flowRegion
         id="flowRegion2059"><rect
           id="rect2061"
           width="16.797638"
           height="86.087891"
           x="753.79401"
           y="461.1127" /></flowRegion><flowPara
         id="flowPara2063"></flowPara></flowRoot>    <flowRoot
       xml:space="preserve"
       id="flowRoot2065"
       style="fill:black;fill-opacity:1;stroke:none;font-family:sans-serif;font-style:normal;font-weight:normal;font-size:64px;line-height:1.25;letter-spacing:0px;word-spacing:0px"><flowRegion
         id="flowRegion2067"><rect
           id="rect2069"
           width="579.51849"
           height="988.96094"
           x="167.97638"
           y="89.464958" /></flowRegion><flowPara
         id="flowPara2071"></flowPara></flowRoot>    <flowRoot
       xml:space="preserve"
       id="flowRoot2087"
       style="fill:black;fill-opacity:1;stroke:none;font-family:sans-serif;font-style:normal;font-weight:normal;font-size:64px;line-height:1.25;letter-spacing:0px;word-spacing:0px"><flowRegion
         id="flowRegion2089"><rect
           id="rect2091"
           width="682.40405"
           height="867.17804"
           x="39.89439"
           y="118.86082" /></flowRegion><flowPara
         id="flowPara2093"></flowPara></flowRoot>    <flowRoot
       xml:space="preserve"
       style="font-style:normal;font-weight:normal;font-size:16.93333244px;line-height:1.25;font-family:sans-serif;letter-spacing:0px;word-spacing:0px;fill:#000000;fill-opacity:1;stroke:none;stroke-width:0.26458332"
       id="flowRoot2095"><flowRegion
         id="flowRegion2097"><use
           x="0"
           y="0"
           xlink:href="#path2004"
           id="use2099" /></flowRegion><flowPara
         id="flowPara2101">LIST</flowPara></flowRoot>    <text
       xml:space="preserve"
       style="font-style:normal;font-weight:normal;font-size:22.25629807px;line-height:1.25;font-family:sans-serif;letter-spacing:0px;word-spacing:0px;fill:#ff0000;fill-opacity:1;stroke:none;stroke-width:0.34775466"
       x="119.15936"
       y="-87.233635"
       id="text2105"
       transform="matrix(0.34493963,0.93934789,-0.93787844,0.3450049,0,0)"><tspan
         sodipodi:role="line"
         id="tspan2103"
         x="119.15936"
         y="-87.233635"
         style="fill:#ff0000;stroke-width:0.34775466">L</tspan></text>
    <text
       xml:space="preserve"
       style="font-style:normal;font-weight:normal;font-size:26.69620895px;line-height:1.25;font-family:sans-serif;letter-spacing:0px;word-spacing:0px;fill:#008080;fill-opacity:1;stroke:none;stroke-width:0.41712826"
       x="123.54433"
       y="19.643959"
       id="text2109"
       transform="matrix(0.94945557,0.69713161,-0.50245228,0.68431284,0,0)"><tspan
         sodipodi:role="line"
         id="tspan2107"
         x="123.54433"
         y="19.643959"
         style="fill:#008080;stroke-width:0.41712826">I</tspan></text>
    <text
       xml:space="preserve"
       style="font-style:normal;font-weight:normal;font-size:28.41451645px;line-height:1.25;font-family:sans-serif;letter-spacing:0px;word-spacing:0px;fill:#000080;fill-opacity:1;stroke:none;stroke-width:0.44397682"
       x="144.50755"
       y="70.703445"
       id="text2113"
       transform="matrix(0.9854933,0.43153957,-0.53473046,0.78056609,0,0)"><tspan
         sodipodi:role="line"
         id="tspan2111"
         x="144.50755"
         y="70.703445"
         style="fill:#000080;stroke-width:0.44397682">S</tspan></text>
    <text
       xml:space="preserve"
       style="font-style:normal;font-variant:normal;font-weight:normal;font-stretch:normal;font-size:33.56814194px;line-height:1.25;font-family:'Book Antiqua';-inkscape-font-specification:'Book Antiqua';letter-spacing:0px;word-spacing:0px;fill:#800080;fill-opacity:1;stroke:none;stroke-width:0.52450222"
       x="140.34496"
       y="42.300377"
       id="text2117"
       transform="matrix(0.77997595,0.57885572,-0.61356092,0.82673927,0,0)"><tspan
         sodipodi:role="line"
         id="tspan2115"
         x="140.34496"
         y="42.300377"
         style="font-style:normal;font-variant:normal;font-weight:normal;font-stretch:normal;font-family:'Book Antiqua';-inkscape-font-specification:'Book Antiqua';fill:#800080;stroke-width:0.52450222">T</tspan></text>
    <text
       xml:space="preserve"
       style="font-style:normal;font-variant:normal;font-weight:normal;font-stretch:normal;font-size:31.42908859px;line-height:1.25;font-family:Sylfaen;-inkscape-font-specification:Sylfaen;letter-spacing:0px;word-spacing:0px;fill:#806600;fill-opacity:1;stroke:none;stroke-width:0.49107951"
       x="32.625191"
       y="172.0515"
       id="text2121"
       transform="matrix(0.81260178,-0.41960788,0.50510723,0.96978993,0,0)"
       inkscape:transform-center-x="2.8569525"
       inkscape:transform-center-y="3.5711906"><tspan
         sodipodi:role="line"
         id="tspan2119"
         x="32.625191"
         y="172.0515"
         style="font-style:normal;font-variant:normal;font-weight:normal;font-stretch:normal;font-family:Sylfaen;-inkscape-font-specification:Sylfaen;fill:#806600;stroke-width:0.49107951">W</tspan></text>
    <text
       xml:space="preserve"
       style="font-style:normal;font-variant:normal;font-weight:normal;font-stretch:normal;font-size:32.28475952px;line-height:1.25;font-family:Stencil;-inkscape-font-specification:Stencil;letter-spacing:0px;word-spacing:0px;fill:#008000;fill-opacity:1;stroke:none;stroke-width:0.50444937"
       x="68.738388"
       y="134.11555"
       id="text2125"
       transform="scale(0.93267999,1.0721791)"><tspan
         sodipodi:role="line"
         id="tspan2123"
         x="68.738388"
         y="134.11555"
         style="font-style:normal;font-variant:normal;font-weight:normal;font-stretch:normal;font-family:Stencil;-inkscape-font-specification:Stencil;fill:#008000;stroke-width:0.50444937">B</tspan></text>
    <text
       xml:space="preserve"
       style="font-style:normal;font-weight:normal;font-size:36.19039917px;line-height:1.25;font-family:sans-serif;letter-spacing:0px;word-spacing:0px;fill:#ff00ff;fill-opacity:1;stroke:none;stroke-width:0.56547499"
       x="142.92542"
       y="81.319908"
       id="text2129"
       transform="matrix(0.82812446,0.57688097,-0.53115696,0.83753795,0,0)"><tspan
         sodipodi:role="line"
         id="tspan2127"
         x="142.92542"
         y="81.319908"
         style="fill:#ff00ff;stroke-width:0.56547499">U</tspan></text>
    <text
       xml:space="preserve"
       style="font-style:normal;font-weight:normal;font-size:32.16001892px;line-height:1.25;font-family:sans-serif;letter-spacing:0px;word-spacing:0px;fill:#00ff00;fill-opacity:1;stroke:none;stroke-width:0.5025003"
       x="142.22198"
       y="-98.327827"
       id="text2133"
       transform="matrix(0.05407413,1.0839466,-0.92047603,0.04166768,0,0)"><tspan
         sodipodi:role="line"
         id="tspan2131"
         x="142.22198"
         y="-98.327827"
         style="fill:#00ff00;stroke-width:0.5025003">T</tspan></text>
    <text
       xml:space="preserve"
       style="font-style:normal;font-variant:normal;font-weight:normal;font-stretch:normal;font-size:41.22819519px;line-height:1.25;font-family:SimSun;-inkscape-font-specification:SimSun;letter-spacing:0px;word-spacing:0px;fill:#ff0000;fill-opacity:1;stroke:none;stroke-width:0.64419055"
       x="144.27553"
       y="97.831635"
       id="text2137"
       transform="matrix(0.77328486,0.66370586,-0.63911592,0.74463507,0,0)"><tspan
         sodipodi:role="line"
         id="tspan2135"
         x="144.27553"
         y="97.831635"
         style="font-style:normal;font-variant:normal;font-weight:normal;font-stretch:normal;font-family:SimSun;-inkscape-font-specification:SimSun;fill:#ff0000;stroke-width:0.64419055">E</tspan></text>
    <text
       xml:space="preserve"
       style="font-style:normal;font-variant:normal;font-weight:normal;font-stretch:normal;font-size:39.65222549px;line-height:1.25;font-family:'Times New Roman';-inkscape-font-specification:'Times New Roman, ';letter-spacing:0px;word-spacing:0px;fill:#0000ff;fill-opacity:1;stroke:none;stroke-width:0.61956602"
       x="75.628258"
       y="208.25195"
       id="text2141"
       transform="scale(1.1072598,0.90313041)"><tspan
         sodipodi:role="line"
         id="tspan2139"
         x="75.628258"
         y="208.25195"
         style="font-style:normal;font-variant:normal;font-weight:normal;font-stretch:normal;font-family:'Times New Roman';-inkscape-font-specification:'Times New Roman, ';fill:#0000ff;stroke-width:0.61956602">L</tspan></text>
    <text
       xml:space="preserve"
       style="font-style:normal;font-weight:normal;font-size:29.85675049px;line-height:1.25;font-family:sans-serif;letter-spacing:0px;word-spacing:0px;fill:#000080;fill-opacity:1;stroke:none;stroke-width:0.46651173"
       x="41.321629"
       y="187.48073"
       id="text2145"
       transform="scale(0.94401866,1.0593011)"><tspan
         sodipodi:role="line"
         id="tspan2143"
         x="41.321629"
         y="187.48073"
         style="fill:#000080;stroke-width:0.46651173">C</tspan></text>
    <text
       xml:space="preserve"
       style="font-style:normal;font-variant:normal;font-weight:normal;font-stretch:normal;font-size:39.61231232px;line-height:1.25;font-family:'Script MT Bold';-inkscape-font-specification:'Script MT Bold, ';letter-spacing:0px;word-spacing:0px;fill:#ff6600;fill-opacity:1;stroke:none;stroke-width:0.61894238"
       x="138.67567"
       y="58.599552"
       id="text2149"
       transform="matrix(0.69067403,1.2320449,-0.61757712,0.34620854,0,0)"
       inkscape:transform-center-x="-1.4284762"
       inkscape:transform-center-y="-7.8566192"><tspan
         sodipodi:role="line"
         id="tspan2147"
         x="138.67567"
         y="58.599552"
         style="font-style:normal;font-variant:normal;font-weight:normal;font-stretch:normal;font-family:'Script MT Bold';-inkscape-font-specification:'Script MT Bold, ';fill:#ff6600;stroke-width:0.61894238">E</tspan></text>
    <path
       style="opacity:1;fill:#2b1100;fill-opacity:1;fill-rule:evenodd;stroke:none;stroke-width:0.30991414;stroke-miterlimit:4;stroke-dasharray:none;stroke-opacity:0.72864326"
       d=""
       id="path2188"
       inkscape:connector-curvature="0"
       transform="scale(0.26458333)" />
    <flowRoot
       xml:space="preserve"
       id="flowRoot2218"
       style="fill:black;fill-opacity:1;stroke:none;font-family:sans-serif;font-style:normal;font-weight:normal;font-size:64px;line-height:1.25;letter-spacing:0px;word-spacing:0px"><flowRegion
         id="flowRegion2220"><rect
           id="rect2222"
           width="477.75507"
           height="655.98492"
           x="69.311615"
           y="164.53412" /></flowRegion><flowPara
         id="flowPara2224"></flowPara></flowRoot>    <flowRoot
       xml:space="preserve"
       style="font-style:normal;font-weight:normal;font-size:16.93333244px;line-height:1.25;font-family:sans-serif;letter-spacing:0px;word-spacing:0px;fill:#000000;fill-opacity:1;stroke:none;stroke-width:0.26458332"
       id="flowRoot2242"><flowRegion
         id="flowRegion2244"><use
           x="0"
           y="0"
           xlink:href="#path2004"
           id="use2246" /></flowRegion><flowPara
         id="flowPara2248">list w  butelce</flowPara></flowRoot>    <flowRoot
       xml:space="preserve"
       id="flowRoot2285"
       style="fill:black;fill-opacity:1;stroke:none;font-family:sans-serif;font-style:normal;font-weight:normal;font-size:64px;line-height:1.25;letter-spacing:0px;word-spacing:0px"><flowRegion
         id="flowRegion2287"><rect
           id="rect2289"
           width="255.57263"
           height="257.10303"
           x="84.170631"
           y="187.46051" /></flowRegion><flowPara
         id="flowPara2291"></flowPara></flowRoot>    <flowRoot
       xml:space="preserve"
       id="flowRoot2313"
       style="fill:black;fill-opacity:1;stroke:none;font-family:sans-serif;font-style:normal;font-weight:normal;font-size:64px;line-height:1.25;letter-spacing:0px;word-spacing:0px"><flowRegion
         id="flowRegion2315"><rect
           id="rect2317"
           width="187.47095"
           height="206.60063"
           x="-7.6518755"
           y="318.30759" /></flowRegion><flowPara
         id="flowPara2319"></flowPara></flowRoot>    <flowRoot
       xml:space="preserve"
       id="flowRoot2324"
       style="fill:black;fill-opacity:1;stroke:none;font-family:sans-serif;font-style:normal;font-weight:normal;font-size:64px;line-height:1.25;letter-spacing:0px;word-spacing:0px"><flowRegion
         id="flowRegion2326"><rect
           id="rect2328"
           width="224.96513"
           height="185.94057"
           x="-48.972004"
           y="316.77719" /></flowRegion><flowPara
         id="flowPara2330"></flowPara></flowRoot>    <path
       transform="scale(0.26458333)"
       sodipodi:nodetypes="ccccccccccccccccsccsccccccsccccccccccccccccccccccccccccccccsscccscccscccccccccccccccccccccccccccccccccccsccccsccccccccccccccccccccccccccccccccsccccssccccssccccsccccccccccccccccccccccccscccscccccccccccccscsccccscsccccccccccccccccsscccccccccccsccccsccccccc"
       inkscape:connector-curvature="0"
       id="path2374"
       d="m 539.62305,155.39453 c -0.66467,-0.0198 -1.32011,-0.0134 -1.9668,0.0195 -5.10489,0.25969 -15.93586,9.13081 -20.23437,16.57227 -2.42595,4.20056 -3.26756,5.29008 -5.93946,5.0664 v 7.9043 h -0.0781 c -0.0192,1.13743 -0.5336,2.97538 -1.50391,6.11133 -3.48472,11.26254 -2.71887,16.85579 3.86523,28.21289 5.58089,9.62428 6.10356,10.17511 21.03126,22 12.90899,10.22584 16.76305,12.69389 24.58203,15.74414 16.16813,6.30711 24.61664,4.15917 31.79687,-8.08398 0.89674,-1.52888 1.55166,-2.42511 2.18164,-2.84571 0.25552,-0.63458 0.77236,-1.21929 1.50196,-1.69922 -0.0496,-0.26742 -0.0751,-0.54137 -0.0762,-0.8164 9.7e-4,-1.91124 1.1624,-3.48247 2.63477,-3.56446 l 3.88281,-7.35156 c 5.85853,-11.09469 6.68793,-15.13971 4.86328,-23.67968 -2.31265,-10.82401 -8.79953,-18.82436 -26.79492,-33.04297 -17.67086,-13.9627 -29.77607,-20.24919 -39.74609,-20.54688 z m 1.11718,5.49805 c 3.88959,0.0422 9.04507,1.21929 13.99024,3.42773 12.08149,5.39504 35.20347,23.54529 41.17773,32.32227 4.85832,7.13788 6.66026,13.33173 4.34375,14.9375 -2.30464,1.59747 -16.17653,-2.57518 -24.99609,-7.51953 -8.98477,-5.03658 -27.18123,-19.44915 -32.74024,-25.93164 -5.57765,-6.50443 -9.03226,-13.19628 -7.86132,-15.22657 0.80134,-1.38947 3.0607,-2.04262 6.08593,-2.00976 z m -11.49218,7.01953 c 0.1056,0.0161 0.20351,0.0628 0.29492,0.14062 0.47365,0.40364 1.44687,2.24407 2.16211,4.0918 2.59778,6.7053 15.93485,20.39926 29.54297,30.33789 14.10962,10.30366 25.20356,15.18391 34.42968,15.13867 2.85857,-0.0133 5.29823,0.35913 5.41993,0.82813 0.53745,2.06987 -11.96337,22.84477 -16.60157,27.58984 -6.63076,6.78342 -9.89629,7.34329 -20.14062,3.45117 -6.06988,-2.30603 -11.93952,-5.84416 -20.9707,-12.63867 -17.75672,-13.35993 -26.04433,-23.39823 -26.64063,-32.26758 -0.59223,-8.80854 9.23029,-37.17141 12.50391,-36.67187 z m 16.27343,1.83789 c -0.41114,-0.0309 -0.6553,0.18279 -0.63281,0.64844 0.0452,0.93099 1.14051,2.53044 2.4336,3.55468 1.29312,1.02466 2.31255,1.10122 2.26757,0.16993 -0.0452,-0.93107 -1.14046,-2.53035 -2.43359,-3.55469 -0.64658,-0.51233 -1.22362,-0.78743 -1.63477,-0.81836 z m -17.05468,4.75195 c -0.3229,0.0217 -0.66147,0.27529 -0.9375,0.75391 -0.55197,0.95716 -0.47473,2.15794 0.17187,2.66992 0.64664,0.51198 1.45023,0.45769 1.78321,-0.11914 0.33299,-0.57751 0.25574,-1.77986 -0.17188,-2.67187 -0.214,-0.44548 -0.5228,-0.6545 -0.8457,-0.63282 z m -24.07813,1.58985 c -6.1498,0.018 -10.39549,3.86121 -16.05664,13.7207 -3.18274,5.54282 -6.83904,13.91559 -8.12695,18.60742 -3.19408,11.63579 -3.47622,32.49643 -0.51953,38.41016 2.31662,4.63332 2.29861,4.70344 -3.12305,12.54883 -2.99856,4.33895 -8.51476,12.41499 -12.25781,17.94726 -15.97705,23.61405 -37.23514,46.13196 -50.57031,53.56836 -10.41113,5.80568 -19.45745,7.78543 -53.7754,11.76758 -33.32023,3.86633 -41.2738,5.39503 -55.76562,10.7207 -31.48789,11.5719 -43.84622,24.29086 -77.03125,79.27539 -33.25276,55.09663 -64.21426,134.09929 -88.68621,199.82355 -18.78204,50.44279 -25.43,79.09003 -11.47395,106.6452 8.70082,17.17894 25.16353,36.65275 48.7461,57.66016 h 0.002 c 18.10789,16.1301 51.03387,40.98315 67.75391,51.14062 27.12356,16.47761 46.58946,21.2038 63.6914,15.46485 20.91739,-7.01923 58.57334,-37.05179 89.91407,-71.71289 71.68986,-79.28478 126.45492,-166.59478 136.80078,-218.09375 4.54809,-22.63907 3.37313,-49.60603 -3.5586,-81.60156 -10.99415,-50.74685 -12.56128,-59.3185 -12.46679,-68.17579 0.0561,-5.24333 1.48146,-13.79794 3.16796,-19.00976 3.68164,-11.37778 18.87205,-47.41592 30.70118,-72.83594 l 8.57031,-18.41797 7.26367,-0.75195 c 4.25148,-0.43952 9.76363,-2.5305 13.28906,-5.04102 13.76629,-9.80358 29.96752,-35.09447 28.71094,-44.81836 -0.67635,-5.23312 -2.28429,-9.90236 -4.74219,-13.84179 -1.16593,1.10283 -3.17449,1.77014 -5.33203,1.77148 -0.2994,-8.3e-4 -0.59832,-0.0145 -0.89453,-0.041 0.7716,1.73478 1.50956,3.79593 2.04297,5.84961 1.69277,6.51692 1.61143,8.7247 -0.44531,12.25195 -6.37501,10.92987 -19.83762,10.38188 -40.77344,-1.65625 v 0.002 c -16.28871,-9.36716 -41.33798,-29.58657 -50.5957,-40.83984 -12.40237,-15.07549 -15.17578,-22.36973 -12.47266,-32.8125 1.62604,-6.2817 6.12062,-10.66953 10.77539,-10.89453 v -6.41016 c -0.96595,-0.14714 -1.88317,-0.22328 -2.76172,-0.2207 z m 64.01367,7.13672 c -0.54043,-0.0551 0.0309,0.68042 1.44532,1.80078 1.61639,1.28033 2.42218,1.55163 1.79296,0.60156 -0.62946,-0.95007 -1.95058,-1.99787 -2.9375,-2.32813 -0.12334,-0.0413 -0.22357,-0.0663 -0.30078,-0.0742 z M 533,187.48047 c -0.34235,0.0237 -0.64305,0.19078 -0.82031,0.49805 -0.35452,0.61445 -0.41036,1.30309 -0.125,1.52929 0.28505,0.22621 1.13496,0.16697 1.88867,-0.13086 0.75405,-0.29791 0.80981,-0.9852 0.125,-1.52734 -0.34231,-0.27146 -0.72601,-0.3928 -1.06836,-0.36914 z m 9.30273,5.55469 c -0.63952,0.0508 -1.44713,0.71366 -2.03711,1.75586 -1.15715,2.04302 -1.02659,2.37823 0.67579,1.7539 2.72076,-0.99697 3.40459,-2.18088 1.93164,-3.34765 -0.16165,-0.12806 -0.35714,-0.17905 -0.57032,-0.16211 z m -15.82421,1.26562 c -0.83594,0.0995 -1.90012,0.9201 -2.51954,1.99414 -0.70832,1.228 -0.5805,2.34191 0.28516,2.47461 0.86547,0.13278 2.15339,-0.76463 2.86133,-1.99219 0.70832,-1.22785 0.58051,-2.34191 -0.28516,-2.47461 -0.10818,-0.0166 -0.22237,-0.0162 -0.34179,-0.002 z m 48.3496,0.23438 c -0.60415,0.0874 -0.1249,1.55749 1.44922,3.84375 h -0.002 c 1.15068,1.67966 2.47163,3.02633 2.93164,2.99609 1.10699,-0.0664 -1.03238,-4.545 -2.88476,-6.04883 -0.72173,-0.58481 -1.21952,-0.83075 -1.49415,-0.79101 z m 19.72461,7.92187 c -0.32292,0.0217 -0.6615,0.27338 -0.9375,0.75195 -0.55234,0.95723 -0.47476,2.1599 0.17188,2.67188 0.64664,0.51199 1.44865,0.45769 1.78125,-0.11914 0.33347,-0.57751 0.25532,-1.77987 -0.17188,-2.67188 -0.21401,-0.44547 -0.52082,-0.65451 -0.84375,-0.63281 z m -38.2832,3.8457 c -1.87032,-0.0437 -3.8889,2.16208 -4.24805,4.91016 -0.45626,3.48985 2.67774,3.0533 4.82618,-0.67187 1.27166,-2.20477 1.34325,-3.61924 0.20898,-4.07618 -0.25584,-0.10299 -0.51992,-0.15586 -0.78711,-0.16211 z m -20.82422,4.48243 c -0.31218,0.0115 -0.48366,0.19153 -0.46679,0.55273 0.0452,0.93107 0.81355,2.27049 1.70703,2.97852 0.89359,0.70793 2.24192,1.04392 2.99609,0.74609 0.78028,-0.30802 0.0454,-1.59028 -1.70703,-2.97852 -1.09531,-0.8676 -2.00899,-1.318 -2.5293,-1.29882 z m -46.8125,0.18945 c 0.23339,-0.0238 2.72958,3.94368 5.54688,8.81836 8.02552,13.88655 19.85005,25.90097 41.00781,41.66601 20.5522,15.31361 34.92366,22.87062 46.98047,24.70508 4.11375,0.62524 7.39054,1.28836 7.2832,1.47461 -0.98589,1.70952 -13.61081,10.12733 -18.02148,12.01563 -6.41915,2.74826 -12.43615,1.25616 -25.06446,-6.21289 -28.42201,-16.8105 -54.22812,-40.89054 -57.55664,-53.70703 -1.25253,-4.82281 -1.39823,-28.63535 -0.17578,-28.75977 z m 86.14844,7.81445 c -0.24978,-0.0897 -0.53418,0.18816 -0.89648,0.81641 -0.5418,0.9414 -0.81278,2.38312 -0.59961,3.20508 0.21271,0.82188 0.92271,1.07688 1.57812,0.5664 0.65745,-0.50987 0.92503,-1.95243 0.59961,-3.20507 -0.21694,-0.83652 -0.43186,-1.29313 -0.68164,-1.38282 z m 14.85156,2.16797 c -0.41114,-0.0309 -0.6553,0.18313 -0.63281,0.64844 0.0452,0.93099 1.14054,2.53042 2.43359,3.55469 1.29317,1.02457 2.31451,1.10114 2.26953,0.16992 -0.0451,-0.93107 -1.14046,-2.53035 -2.43359,-3.55469 -0.64658,-0.51233 -1.22558,-0.78751 -1.63672,-0.81836 z m -48.51367,5.84961 c -0.3229,0.0217 -0.6615,0.27529 -0.9375,0.75391 -0.55204,0.95708 -0.47473,2.15794 0.17188,2.66992 0.64663,0.51198 1.44865,0.45769 1.78125,-0.11914 0.33346,-0.57736 0.25596,-1.77979 -0.17188,-2.67188 -0.21402,-0.44547 -0.52085,-0.6545 -0.84375,-0.63281 z m 28.25195,1.13281 c -0.1929,0.0135 -0.37307,0.13713 -0.51367,0.38086 -0.37553,0.65103 -0.15441,1.60325 0.49219,2.11524 0.64664,0.515 1.30446,0.71014 1.46094,0.43945 0.15673,-0.2716 -0.0663,-1.22322 -0.49414,-2.11523 -0.26715,-0.55751 -0.62381,-0.84272 -0.94532,-0.82032 z m 16.88282,4.69922 c -0.57447,-0.0689 -1.23056,0.31718 -1.64453,1.03516 -0.55291,0.95836 -0.29536,1.84852 0.57031,1.98047 0.86547,0.13278 1.84513,-0.23102 2.17773,-0.8086 0.33313,-0.57735 0.0783,-1.47044 -0.56836,-1.98242 -0.16165,-0.12807 -0.34367,-0.20165 -0.53515,-0.22461 z m -10.29297,3.00391 c -0.20417,0.003 -0.41162,0.0156 -0.62305,0.0371 -2.83691,0.28909 -2.92534,0.43391 -1.13086,1.85547 2.14311,1.69761 5.06084,1.1242 4.53711,-0.89063 -0.15963,-0.6145 -1.35404,-1.02439 -2.7832,-1.00195 z m -15.43164,0.33398 c -0.72719,0.0525 -1.58877,0.62824 -2.03516,1.40235 -0.94828,1.64415 0.16728,3.24909 2.11914,3.05078 1.63982,-0.16672 1.83689,-4.19527 0.2168,-4.44336 -0.0968,-0.0148 -0.1969,-0.0173 -0.30078,-0.01 z m -73.79102,23.59961 c 0.29741,-0.0702 1.48153,1.11991 2.63281,2.64258 2.05565,2.72082 1.91298,3.04856 -8.0957,18.53711 -14.26881,22.08112 -35.15648,51.18065 -43.45508,60.53906 -13.07667,14.74688 -28.94962,20.70799 -80.64453,30.29102 -31.7167,5.87939 -50.86515,13.00405 -65.46094,24.35351 C 265.47313,416.3441 220.32836,494.55452 175.89453,596.58789 141.77059,674.94668 137.06333,705.4604 154.38867,736 c 20.51061,36.15413 82.5676,86.70905 118.32422,96.39258 20.03074,5.42475 30.93753,1.6916 58.23828,-19.9375 29.16139,-23.10327 58.33428,-55.69777 100.50391,-112.29102 19.51702,-26.19227 59.71881,-95.84891 66.5,-115.22265 10.74867,-30.70848 11.77262,-56.01905 4.67187,-115.51172 -5.52567,-46.2946 -5.93094,-61.79449 -1.95703,-74.93946 3.43869,-11.37437 20.9703,-48.8972 32.42578,-69.40234 l 10.82813,-19.38477 3.98437,1.85352 c 2.19096,1.01884 4.01614,2.03822 4.05469,2.26367 0.04,0.22561 -4.52945,9.93735 -10.1543,21.58203 -5.62484,11.64484 -13.64456,29.07578 -17.82226,38.73633 -19.26221,44.54279 -19.57097,48.87821 -7.41797,104.19141 15.1254,68.84194 13.12281,92.92636 -12.04102,144.82226 -24.32201,50.15966 -79.08153,124.43968 -131.25195,178.04102 -15.77134,16.20389 -46.43976,40.86946 -61.04883,49.09961 -9.86255,5.55583 -22.52499,7.63977 -32.24218,5.30273 -8.2125,-1.97518 -23.65294,-9.30798 -35.91211,-17.05468 -24.00046,-15.16664 -60.98466,-45.09804 -80.45508,-65.11329 -9.87486,-10.15113 -21.94981,-25.97921 -25.93555,-33.99804 -4.3028,-8.65671 -7.61993,-21.9153 -7.79492,-31.15821 -0.50346,-26.58572 12.30465,-66.95119 43.875,-138.27734 22.17886,-50.10811 29.25643,-64.02019 57.49805,-113.04883 24.42659,-42.40437 29.54814,-50.55498 37.38867,-59.49023 21.22199,-24.18535 41.88442,-33.02058 91.91015,-39.30469 34.00319,-4.27146 46.99925,-7.25442 57.69532,-13.24023 15.30878,-8.56714 31.96504,-27.02584 53.08398,-58.82813 8.17387,-12.30898 15.10294,-22.43798 15.40039,-22.50586 z m 5.21875,7.94336 20.69141,16.39063 c 11.38015,9.01472 22.30223,17.12217 24.27148,18.01953 l 3.58203,1.63086 -7.11718,14.26953 c -15.28744,30.64871 -24.98772,51.3421 -30.71094,65.51367 -5.29474,13.1105 -6.03326,16.39567 -6.50781,28.99805 -0.29443,7.81704 0.71674,24.71705 2.24609,37.55664 8.80464,73.91626 8.46433,99.99942 -1.70899,131.1914 -3.3732,10.34249 -7.60234,18.52672 -26.83398,51.92578 -23.65678,41.08305 -30.90158,51.81816 -59.7207,88.49024 -32.31565,41.12141 -57.62494,67.80436 -83.23438,87.75195 -18.88632,14.71087 -25.21709,18.10522 -36.52734,19.58203 -13.1778,1.72075 -24.4637,-2.57473 -47.92188,-18.24023 -24.29973,-16.22721 -57.36676,-44.25511 -71.37695,-60.49805 -20.40309,-23.6544 -24.96744,-41.76793 -18.68945,-74.17383 4.64338,-23.96866 22.53972,-69.1474 55.41797,-139.90625 5.45876,-11.7482 20.33931,-39.09376 37.10547,-68.18554 24.45947,-42.44096 29.07722,-49.76253 36.5957,-58.01758 18.81904,-20.66256 34.99263,-27.5634 90.06836,-38.42969 29.12316,-5.74605 47.457,-11.56985 56.64258,-17.99414 10.90208,-7.62475 29.05462,-31.0298 51.05468,-65.82812 z m -133.82226,121.6875 c -1.60684,0.0287 -3.48886,0.21841 -5.71485,0.55078 -13.64057,2.03679 -44.24919,21.66713 -45.20703,28.99219 -0.94702,7.24286 14.27485,7.17578 33.20703,-0.14648 19.45788,-7.52546 30.51547,-17.76776 26.7207,-24.74805 -1.82965,-3.36546 -4.18534,-4.73448 -9.00585,-4.64844 z m -0.30079,3.66797 c 5.15576,0.0792 7.53607,2.31181 6.09571,6.0957 -2.38205,6.2578 -27.35007,19.27756 -42.03321,21.91797 -4.04842,0.72851 -8.65743,1.03988 -10.24414,0.69141 -2.48496,-0.54569 -2.65575,-1.03201 -1.23242,-3.5 4.54475,-7.88032 31.01668,-23.06835 43.41406,-24.9082 1.47233,-0.21851 2.81021,-0.31515 4,-0.29688 z"
       style="fill:#008080;stroke-width:1.38269913" />
    <text
       transform="matrix(0.34493963,0.93934789,-0.93787844,0.3450049,0,0)"
       id="text2378"
       y="-87.233635"
       x="119.15936"
       style="font-style:normal;font-weight:normal;font-size:22.25629807px;line-height:1.25;font-family:sans-serif;letter-spacing:0px;word-spacing:0px;fill:#ff0000;fill-opacity:1;stroke:none;stroke-width:0.34775466"
       xml:space="preserve"><tspan
         style="fill:#ff0000;stroke-width:0.34775466"
         y="-87.233635"
         x="119.15936"
         id="tspan2376"
         sodipodi:role="line">L</tspan></text>
    <text
       transform="matrix(0.94945557,0.69713161,-0.50245228,0.68431284,0,0)"
       id="text2382"
       y="19.643959"
       x="123.54433"
       style="font-style:normal;font-weight:normal;font-size:26.69620895px;line-height:1.25;font-family:sans-serif;letter-spacing:0px;word-spacing:0px;fill:#008080;fill-opacity:1;stroke:none;stroke-width:0.41712826"
       xml:space="preserve"><tspan
         style="fill:#008080;stroke-width:0.41712826"
         y="19.643959"
         x="123.54433"
         id="tspan2380"
         sodipodi:role="line">I</tspan></text>
    <text
       transform="matrix(0.9854933,0.43153957,-0.53473046,0.78056609,0,0)"
       id="text2386"
       y="70.703445"
       x="144.50755"
       style="font-style:normal;font-weight:normal;font-size:28.41451645px;line-height:1.25;font-family:sans-serif;letter-spacing:0px;word-spacing:0px;fill:#000080;fill-opacity:1;stroke:none;stroke-width:0.44397682"
       xml:space="preserve"><tspan
         style="fill:#000080;stroke-width:0.44397682"
         y="70.703445"
         x="144.50755"
         id="tspan2384"
         sodipodi:role="line">S</tspan></text>
    <text
       transform="matrix(0.77997595,0.57885572,-0.61356092,0.82673927,0,0)"
       id="text2390"
       y="42.300377"
       x="140.34496"
       style="font-style:normal;font-variant:normal;font-weight:normal;font-stretch:normal;font-size:33.56814194px;line-height:1.25;font-family:'Book Antiqua';-inkscape-font-specification:'Book Antiqua';letter-spacing:0px;word-spacing:0px;fill:#800080;fill-opacity:1;stroke:none;stroke-width:0.52450222"
       xml:space="preserve"><tspan
         style="font-style:normal;font-variant:normal;font-weight:normal;font-stretch:normal;font-family:'Book Antiqua';-inkscape-font-specification:'Book Antiqua';fill:#800080;stroke-width:0.52450222"
         y="42.300377"
         x="140.34496"
         id="tspan2388"
         sodipodi:role="line">T</tspan></text>
    <text
       inkscape:transform-center-y="3.5711906"
       inkscape:transform-center-x="2.8569525"
       transform="matrix(0.81260178,-0.41960788,0.50510723,0.96978993,0,0)"
       id="text2394"
       y="172.0515"
       x="32.625191"
       style="font-style:normal;font-variant:normal;font-weight:normal;font-stretch:normal;font-size:31.42908859px;line-height:1.25;font-family:Sylfaen;-inkscape-font-specification:Sylfaen;letter-spacing:0px;word-spacing:0px;fill:#806600;fill-opacity:1;stroke:none;stroke-width:0.49107951"
       xml:space="preserve"><tspan
         style="font-style:normal;font-variant:normal;font-weight:normal;font-stretch:normal;font-family:Sylfaen;-inkscape-font-specification:Sylfaen;fill:#806600;stroke-width:0.49107951"
         y="172.0515"
         x="32.625191"
         id="tspan2392"
         sodipodi:role="line">W</tspan></text>
    <text
       transform="scale(0.93267999,1.0721791)"
       id="text2398"
       y="134.11555"
       x="68.738388"
       style="font-style:normal;font-variant:normal;font-weight:normal;font-stretch:normal;font-size:32.28475952px;line-height:1.25;font-family:Stencil;-inkscape-font-specification:Stencil;letter-spacing:0px;word-spacing:0px;fill:#008000;fill-opacity:1;stroke:none;stroke-width:0.50444937"
       xml:space="preserve"><tspan
         style="font-style:normal;font-variant:normal;font-weight:normal;font-stretch:normal;font-family:Stencil;-inkscape-font-specification:Stencil;fill:#008000;stroke-width:0.50444937"
         y="134.11555"
         x="68.738388"
         id="tspan2396"
         sodipodi:role="line">B</tspan></text>
    <text
       transform="matrix(0.82812446,0.57688097,-0.53115696,0.83753795,0,0)"
       id="text2402"
       y="81.319908"
       x="142.92542"
       style="font-style:normal;font-weight:normal;font-size:36.19039917px;line-height:1.25;font-family:sans-serif;letter-spacing:0px;word-spacing:0px;fill:#ff00ff;fill-opacity:1;stroke:none;stroke-width:0.56547499"
       xml:space="preserve"><tspan
         style="fill:#ff00ff;stroke-width:0.56547499"
         y="81.319908"
         x="142.92542"
         id="tspan2400"
         sodipodi:role="line">U</tspan></text>
    <text
       transform="matrix(0.05407413,1.0839466,-0.92047603,0.04166768,0,0)"
       id="text2406"
       y="-98.327827"
       x="142.22198"
       style="font-style:normal;font-weight:normal;font-size:32.16001892px;line-height:1.25;font-family:sans-serif;letter-spacing:0px;word-spacing:0px;fill:#00ff00;fill-opacity:1;stroke:none;stroke-width:0.5025003"
       xml:space="preserve"><tspan
         style="fill:#00ff00;stroke-width:0.5025003"
         y="-98.327827"
         x="142.22198"
         id="tspan2404"
         sodipodi:role="line">T</tspan></text>
    <text
       transform="matrix(0.77328486,0.66370586,-0.63911592,0.74463507,0,0)"
       id="text2410"
       y="97.831635"
       x="144.27553"
       style="font-style:normal;font-variant:normal;font-weight:normal;font-stretch:normal;font-size:41.22819519px;line-height:1.25;font-family:SimSun;-inkscape-font-specification:SimSun;letter-spacing:0px;word-spacing:0px;fill:#ff0000;fill-opacity:1;stroke:none;stroke-width:0.64419055"
       xml:space="preserve"><tspan
         style="font-style:normal;font-variant:normal;font-weight:normal;font-stretch:normal;font-family:SimSun;-inkscape-font-specification:SimSun;fill:#ff0000;stroke-width:0.64419055"
         y="97.831635"
         x="144.27553"
         id="tspan2408"
         sodipodi:role="line">E</tspan></text>
    <text
       transform="scale(1.1072598,0.90313041)"
       id="text2414"
       y="208.25195"
       x="75.628258"
       style="font-style:normal;font-variant:normal;font-weight:normal;font-stretch:normal;font-size:39.65222549px;line-height:1.25;font-family:'Times New Roman';-inkscape-font-specification:'Times New Roman, ';letter-spacing:0px;word-spacing:0px;fill:#0000ff;fill-opacity:1;stroke:none;stroke-width:0.61956602"
       xml:space="preserve"><tspan
         style="font-style:normal;font-variant:normal;font-weight:normal;font-stretch:normal;font-family:'Times New Roman';-inkscape-font-specification:'Times New Roman, ';fill:#0000ff;stroke-width:0.61956602"
         y="208.25195"
         x="75.628258"
         id="tspan2412"
         sodipodi:role="line">L</tspan></text>
    <text
       transform="scale(0.94401866,1.0593011)"
       id="text2418"
       y="187.48073"
       x="41.321629"
       style="font-style:normal;font-weight:normal;font-size:29.85675049px;line-height:1.25;font-family:sans-serif;letter-spacing:0px;word-spacing:0px;fill:#000080;fill-opacity:1;stroke:none;stroke-width:0.46651173"
       xml:space="preserve"><tspan
         style="fill:#000080;stroke-width:0.46651173"
         y="187.48073"
         x="41.321629"
         id="tspan2416"
         sodipodi:role="line">C</tspan></text>
    <text
       inkscape:transform-center-y="-7.8566192"
       inkscape:transform-center-x="-1.4284762"
       transform="matrix(0.69067403,1.2320449,-0.61757712,0.34620854,0,0)"
       id="text2422"
       y="58.599552"
       x="138.67567"
       style="font-style:normal;font-variant:normal;font-weight:normal;font-stretch:normal;font-size:39.61231232px;line-height:1.25;font-family:'Script MT Bold';-inkscape-font-specification:'Script MT Bold, ';letter-spacing:0px;word-spacing:0px;fill:#ff6600;fill-opacity:1;stroke:none;stroke-width:0.61894238"
       xml:space="preserve"><tspan
         style="font-style:normal;font-variant:normal;font-weight:normal;font-stretch:normal;font-family:'Script MT Bold';-inkscape-font-specification:'Script MT Bold, ';fill:#ff6600;stroke-width:0.61894238"
         y="58.599552"
         x="138.67567"
         id="tspan2420"
         sodipodi:role="line">E</tspan></text>
    <flowRoot
       xml:space="preserve"
       id="flowRoot2482"
       style="fill:black;fill-opacity:1;stroke:none;font-family:sans-serif;font-style:normal;font-weight:normal;font-size:64px;line-height:1.25;letter-spacing:0px;word-spacing:0px"><flowRegion
         id="flowRegion2484"><rect
           id="rect2486"
           width="232.27827"
           height="464.55655"
           x="-1035.574"
           y="-435.68039" /></flowRegion><flowPara
         id="flowPara2488"></flowPara></flowRoot>    <flowRoot
       xml:space="preserve"
       id="flowRoot2490"
       style="fill:black;fill-opacity:1;stroke:none;font-family:sans-serif;font-style:normal;font-weight:normal;font-size:64px;line-height:1.25;letter-spacing:0px;word-spacing:0px"><flowRegion
         id="flowRegion2492"><rect
           id="rect2494"
           width="558.91962"
           height="796.03699"
           x="-1059.7697"
           y="-491.33038" /></flowRegion><flowPara
         id="flowPara2496"></flowPara></flowRoot>    <flowRoot
       xml:space="preserve"
       id="flowRoot2532"
       style="fill:black;fill-opacity:1;stroke:none;font-family:sans-serif;font-style:normal;font-weight:normal;font-size:64px;line-height:1.25;letter-spacing:0px;word-spacing:0px"><flowRegion
         id="flowRegion2534"><rect
           id="rect2536"
           width="200.84784"
           height="172.31512"
           x="-957.80359"
           y="-356.70502" /></flowRegion><flowPara
         id="flowPara2538"></flowPara></flowRoot>    <path
       style="fill:none;stroke:#000000;stroke-width:0.26458332px;stroke-linecap:butt;stroke-linejoin:miter;stroke-opacity:0"
       d="m 65.131015,107.824 7.401253,-10.065703 10.213729,-5.328901 8.141377,-1.1842 7.253225,-0.797979 6.175201,-1.061708 c 1.03617,-0.29605 4.70141,-1.258376 5.58956,-1.406399 0.53425,-0.926612 3.76187,-3.41411 3.76187,-3.41411 0,0 4.53092,-4.939609 5.27104,-5.531709 0.74013,-0.5921 5.16149,-7.082738 5.16149,-7.082738 1.10892,-1.601413 1.38083,-4.768807 4.68307,-3.271026 v 0"
       id="path2586"
       inkscape:connector-curvature="0"
       sodipodi:nodetypes="cccccccccccc" />
    <path
       style="fill:none;stroke:#000000;stroke-width:0.26458332px;stroke-linecap:butt;stroke-linejoin:miter;stroke-opacity:0"
       d="m 72.532268,97.758296 4.579023,-2.726895 3.935298,-1.590293 5.358068,-1.433874 7.305462,-1.02156 6.094325,-0.743608 4.511356,-0.856559 c 1.79252,-0.221041 3.56433,-0.597375 5.23058,-1.765375 2.70367,-1.303908 4.73565,-3.72729 6.89365,-5.94065 l 5.32678,-6.648355 c 0.83136,-1.094554 1.738,-2.490264 2.49407,-3.283663 v 0"
       id="path2616"
       inkscape:connector-curvature="0"
       sodipodi:nodetypes="cccccccccccc" />
    <text
       xml:space="preserve"
       style="font-style:normal;font-weight:normal;font-size:8.46666667px;line-height:1.25;font-family:'Segoe Script';letter-spacing:0px;word-spacing:0px;fill:#000000;fill-opacity:1;stroke:none;stroke-width:0.26458332;-inkscape-font-specification:'Segoe Script';font-stretch:normal;font-variant:normal;"
       id="text2620"><textPath
         xlink:href="#path2616"
         id="textPath2622"><tspan
   style="stroke-width:0.26458332;font-size:8.46666667px;-inkscape-font-specification:'Segoe Script';font-family:'Segoe Script';font-weight:normal;font-style:normal;font-stretch:normal;font-variant:normal;"
   id="tspan2618">list w butelce</tspan></textPath></text>
    <path
       style="fill:none;stroke:#000000;stroke-width:0.26458332px;stroke-linecap:butt;stroke-linejoin:miter;stroke-opacity:0.00555556"
       d="m 158.96582,62.301087 -1.97334,2.811725 -0.63814,-1.405538 1.94187,-2.142757"
       id="path2625"
       inkscape:connector-curvature="0" />
    <path
       style="opacity:1;fill:#000000;fill-opacity:1;fill-rule:evenodd;stroke:#000000;stroke-width:0.25348014;stroke-miterlimit:4;stroke-dasharray:none;stroke-opacity:0.00555558"
       d="m 570.8599,260.18581 c -5.50823,-0.89948 -11.86776,-3.05602 -17.46263,-5.92167 -4.49791,-2.30379 -8.66427,-5.22524 -18.34842,-12.86595 -13.64978,-10.76955 -15.57938,-12.68346 -19.66839,-19.50854 -5.59901,-9.34546 -7.36442,-14.04191 -7.37287,-19.61382 -0.005,-3.57883 0.3413,-5.50234 2.05288,-11.38867 l 1.39819,-4.80855 0.11829,-4.4922 0.1183,-4.4922 h 0.76442 c 1.24076,0 2.37977,-0.9177 3.71522,-2.99333 0.68712,-1.06797 1.76386,-2.73897 2.39275,-3.71333 4.16163,-6.44781 13.76681,-14.10311 18.50587,-14.74912 6.41908,-0.87503 15.65254,2.22058 26.0603,8.73699 10.05141,6.29328 24.91985,18.14036 31.87163,25.3951 8.05029,8.40112 11.92232,16.94814 11.85651,26.17172 -0.0229,3.21632 -0.49253,5.29637 -2.11571,9.37156 -1.51025,3.79167 -7.1075,14.35085 -7.79184,14.69926 -1.41034,0.71802 -2.46824,2.51233 -2.26723,3.84545 0.0356,0.23588 -0.21459,0.75099 -0.5559,1.14469 -0.34131,0.3937 -0.93864,1.07702 -1.32741,1.51849 -0.38876,0.44146 -1.37438,1.88459 -2.19027,3.20694 -3.65294,5.92046 -7.7017,9.21996 -12.58268,10.25414 -1.58673,0.33619 -5.6509,0.45127 -7.17101,0.20304 z m 5.6847,-8.56719 c 5.30909,-1.38284 10.83492,-7.76933 19.53305,-22.57536 2.25505,-3.83857 4.73967,-8.7696 5.03721,-9.99697 0.14475,-0.5971 0.0686,-0.73044 -0.55466,-0.9708 -0.39735,-0.15325 -2.4877,-0.37723 -4.64522,-0.49773 -2.15752,-0.12051 -4.88239,-0.40363 -6.05525,-0.62917 -8.22698,-1.58198 -18.486,-6.92551 -30.08295,-15.66906 -5.98445,-4.51198 -9.86703,-7.9038 -15.64543,-13.66787 -7.5387,-7.52 -10.8268,-11.74189 -12.75564,-16.3781 -0.44343,-1.06584 -1.11165,-2.30373 -1.48493,-2.75085 l -0.67868,-0.81296 -0.81846,0.68869 c -1.82036,1.53174 -4.43639,7.17647 -7.27401,15.69552 -2.84382,8.53764 -4.416,15.52517 -4.41817,19.63661 -0.005,9.21944 8.75698,19.90556 28.07393,34.23943 9.17053,6.80487 15.13808,10.16764 22.28045,12.55526 4.62022,1.54448 6.87595,1.81391 9.48876,1.13336 z m 23.94531,-40.33893 c 0.65729,-0.65727 0.73978,-0.91336 0.73978,-2.29638 0,-3.89429 -3.39874,-10.49318 -8.19769,-15.91636 -8.01798,-9.06095 -27.22084,-23.58628 -37.6573,-28.48458 -4.83504,-2.2693 -10.493,-3.68538 -14.72496,-3.68538 -2.83017,0 -4.60258,0.47649 -5.5844,1.50129 -0.66281,0.69182 -0.71064,0.86712 -0.58056,2.12754 0.25931,2.51249 3.06483,7.56951 6.69185,12.06223 6.25674,7.7501 26.08387,23.45481 36.04727,28.55239 7.08229,3.62351 16.65289,6.69672 21.30463,6.84111 1.03969,0.0323 1.33177,-0.0722 1.96138,-0.70186 z"
       id="path2627"
       inkscape:connector-curvature="0"
       transform="scale(0.26458333)" />
    <path
       style="opacity:1;fill:#000000;fill-opacity:1;fill-rule:evenodd;stroke:#000000;stroke-width:0.25348014;stroke-miterlimit:4;stroke-dasharray:none;stroke-opacity:0.00555558"
       d="m 552.43556,213.23426 c -0.4572,-0.45719 -0.36494,-2.54843 0.16719,-3.78984 0.69171,-1.6137 2.31764,-2.99274 3.52853,-2.99274 1.16415,0 1.57017,0.35834 1.56282,1.37929 -0.0203,2.82243 -3.87679,6.78505 -5.25854,5.40329 z"
       id="path2629"
       inkscape:connector-curvature="0"
       transform="scale(0.26458333)" />
    <path
       style="opacity:1;fill:#000000;fill-opacity:1;fill-rule:evenodd;stroke:#000000;stroke-width:0.25348014;stroke-miterlimit:4;stroke-dasharray:none;stroke-opacity:0.00555558"
       d="m 540.38165,230.09673 c -0.83968,-0.83968 -0.21124,-3.14544 0.8573,-3.14544 0.81843,0 1.3888,2.56967 0.71903,3.23944 -0.42033,0.42034 -1.10269,0.37965 -1.57633,-0.094 z"
       id="path2631"
       inkscape:connector-curvature="0"
       transform="scale(0.26458333)" />
    <path
       style="opacity:1;fill:#000000;fill-opacity:1;fill-rule:evenodd;stroke:#000000;stroke-width:0.25348014;stroke-miterlimit:4;stroke-dasharray:none;stroke-opacity:0.00555558"
       d="m 537.19801,214.49298 c -1.4833,-0.9996 -2.55714,-3.12561 -1.81149,-3.58644 0.69107,-0.42711 4.78988,2.93278 4.53281,3.71565 -0.1884,0.57373 -1.79114,0.49764 -2.72132,-0.12921 z"
       id="path2633"
       inkscape:connector-curvature="0"
       transform="scale(0.26458333)" />
    <path
       style="opacity:1;fill:#000000;fill-opacity:1;fill-rule:evenodd;stroke:#000000;stroke-width:0.25348014;stroke-miterlimit:4;stroke-dasharray:none;stroke-opacity:0.00555558"
       d="m 523.70236,198.43743 c -0.64067,-0.64068 0.64977,-3.10467 1.94882,-3.72111 1.11866,-0.53084 1.35057,-0.51949 1.67242,0.0819 0.36293,0.67815 -0.32481,2.35021 -1.30642,3.17618 -0.7052,0.59339 -1.93789,0.83997 -2.31482,0.46304 z"
       id="path2635"
       inkscape:connector-curvature="0"
       transform="scale(0.26458333)" />
    <path
       style="opacity:1;fill:#000000;fill-opacity:1;fill-rule:evenodd;stroke:#000000;stroke-width:0.25348014;stroke-miterlimit:4;stroke-dasharray:none;stroke-opacity:0.00555558"
       d="m 527.63356,177.80284 c -0.47463,-0.47464 -0.36535,-2.09591 0.18661,-2.76851 0.63329,-0.7717 1.31182,-0.41959 1.63377,0.84781 0.34889,1.37347 0.0379,2.2244 -0.81287,2.2244 -0.3871,0 -0.84047,-0.13667 -1.00751,-0.3037 z"
       id="path2639"
       inkscape:connector-curvature="0"
       transform="scale(0.26458333)" />
    <path
       style="opacity:1;fill:#000000;fill-opacity:1;fill-rule:evenodd;stroke:#000000;stroke-width:0.25348014;stroke-miterlimit:4;stroke-dasharray:none;stroke-opacity:0.00555558"
       d=""
       id="path2641"
       inkscape:connector-curvature="0"
       transform="scale(0.26458333)" />
    <path
       style="opacity:1;fill:#000000;fill-opacity:1;fill-rule:evenodd;stroke:#000000;stroke-width:0.25348014;stroke-miterlimit:4;stroke-dasharray:none;stroke-opacity:0.00555558"
       d="m 531.97611,189.11363 c -0.17469,-0.45521 0.54654,-1.64307 0.99761,-1.64307 0.49726,0 1.44243,0.74983 1.44243,1.14431 0,0.79231 -2.15812,1.23344 -2.44004,0.49876 z"
       id="path2643"
       inkscape:connector-curvature="0"
       transform="scale(0.26458333)" />
    <path
       style="opacity:1;fill:#000000;fill-opacity:1;fill-rule:evenodd;stroke:#000000;stroke-width:0.25348014;stroke-miterlimit:4;stroke-dasharray:none;stroke-opacity:0.00555558"
       d="m 539.62941,196.62208 c -0.16394,-0.26526 0.73865,-2.00105 1.43355,-2.75686 0.74134,-0.80634 1.40201,-0.95038 1.9761,-0.43083 1.09315,0.98928 0.38301,2.05509 -1.98464,2.97863 -1.25276,0.48866 -1.25225,0.48859 -1.42501,0.20906 z"
       id="path2645"
       inkscape:connector-curvature="0"
       transform="scale(0.26458333)" />
    <path
       style="opacity:1;fill:#000000;fill-opacity:1;fill-rule:evenodd;stroke:#000000;stroke-width:0.25348014;stroke-miterlimit:4;stroke-dasharray:none;stroke-opacity:0.00555558"
       d="m 558.82702,239.74341 c -0.87526,-0.87526 -0.79824,-1.78319 0.23928,-2.82071 1.52297,-1.52297 2.75781,-0.96931 2.72755,1.22295 -0.0288,2.08704 -1.62041,2.94418 -2.96683,1.59776 z"
       id="path2647"
       inkscape:connector-curvature="0"
       transform="scale(0.26458333)" />
    <path
       style="opacity:1;fill:#000000;fill-opacity:1;fill-rule:evenodd;stroke:#000000;stroke-width:0.25348014;stroke-miterlimit:4;stroke-dasharray:none;stroke-opacity:0.00555558"
       d="m 573.69441,223.35753 c -0.72581,-0.72582 -0.021,-4.1351 0.9197,-4.44867 0.42063,-0.14021 0.80126,1.04316 0.80126,2.49111 0,0.91149 -0.13676,1.38569 -0.50616,1.75509 -0.58608,0.58607 -0.79617,0.62109 -1.2148,0.20247 z"
       id="path2649"
       inkscape:connector-curvature="0"
       transform="scale(0.26458333)" />
    <path
       style="opacity:1;fill:#000000;fill-opacity:1;fill-rule:evenodd;stroke:#000000;stroke-width:0.25348014;stroke-miterlimit:4;stroke-dasharray:none;stroke-opacity:0.00555558"
       d="m 569.63633,230.48287 c -0.72908,-0.44338 -0.8214,-0.6187 -0.75277,-1.42947 0.0885,-1.04556 0.46427,-1.30029 1.05164,-0.71292 0.48594,0.48593 0.98823,2.19165 0.72338,2.4565 -0.10519,0.10519 -0.5652,-0.0362 -1.02225,-0.31411 z"
       id="path2651"
       inkscape:connector-curvature="0"
       transform="scale(0.26458333)" />
    <path
       style="opacity:1;fill:#000000;fill-opacity:1;fill-rule:evenodd;stroke:#000000;stroke-width:0.25348014;stroke-miterlimit:4;stroke-dasharray:none;stroke-opacity:0.00555558"
       d="m 574.37932,237.51744 c -0.59147,-0.45238 -1.11748,-0.95037 -1.16889,-1.10664 -0.12987,-0.39467 0.77646,-0.59414 2.71806,-0.5982 1.88867,-0.004 2.77694,0.44193 2.77694,1.39394 0,0.77516 -0.66848,1.13342 -2.11488,1.13342 -0.89213,0 -1.36656,-0.17648 -2.21123,-0.82252 z"
       id="path2653"
       inkscape:connector-curvature="0"
       transform="scale(0.26458333)" />
    <path
       style="opacity:1;fill:#000000;fill-opacity:1;fill-rule:evenodd;stroke:#000000;stroke-width:0.25348014;stroke-miterlimit:4;stroke-dasharray:none;stroke-opacity:0.00555558"
       d="m 584.55827,235.10962 c -0.37293,-0.69682 0.30047,-2.03113 1.13015,-2.23936 0.93884,-0.23564 1.47921,0.1689 1.57843,1.18166 0.0578,0.59035 -0.0533,0.9489 -0.36472,1.17662 -0.66453,0.48592 -2.058,0.41522 -2.34386,-0.11892 z"
       id="path2655"
       inkscape:connector-curvature="0"
       transform="scale(0.26458333)" />
    <path
       style="opacity:1;fill:#000000;fill-opacity:1;fill-rule:evenodd;stroke:#000000;stroke-width:0.25348014;stroke-miterlimit:4;stroke-dasharray:none;stroke-opacity:0.00555558"
       d="m 592.2453,225.64486 c -1.39874,-0.7702 -3.16352,-3.0712 -3.16352,-4.12475 0,-0.58722 1.04649,-0.47866 1.97265,0.20464 2.55856,1.88765 3.57475,5.23276 1.19087,3.92011 z"
       id="path2657"
       inkscape:connector-curvature="0"
       transform="scale(0.26458333)" />
    <path
       style="opacity:1;fill:#000000;fill-opacity:1;fill-rule:evenodd;stroke:#000000;stroke-width:0.25348014;stroke-miterlimit:4;stroke-dasharray:none;stroke-opacity:0.00555558"
       d="m 593.80301,205.73578 c -0.84611,-0.93495 -0.24214,-3.08033 0.86718,-3.08033 0.57426,0 0.99171,0.89116 0.99171,2.11706 0,1.36699 -1.01672,1.89385 -1.85889,0.96327 z"
       id="path2659"
       inkscape:connector-curvature="0"
       transform="scale(0.26458333)" />
    <path
       style="opacity:1;fill:#000000;fill-opacity:1;fill-rule:evenodd;stroke:#000000;stroke-width:0.25348014;stroke-miterlimit:4;stroke-dasharray:none;stroke-opacity:0.00555558"
       d="m 577.924,200.26008 c -1.71502,-1.7647 -3.64714,-5.15526 -3.19525,-5.60714 0.0734,-0.0734 0.47338,0.0424 0.88888,0.25725 1.19415,0.61751 2.97345,3.119 3.59059,5.04794 0.48472,1.51506 0.004,1.62797 -1.28422,0.30195 z"
       id="path2661"
       inkscape:connector-curvature="0"
       transform="scale(0.26458333)" />
    <path
       style="opacity:1;fill:#000000;fill-opacity:1;fill-rule:evenodd;stroke:#000000;stroke-width:0.25348014;stroke-miterlimit:4;stroke-dasharray:none;stroke-opacity:0.00555558"
       d="m 569.89239,184.95132 c -1.41793,-1.12081 -1.7536,-1.53007 -1.25493,-1.53007 0.6042,0 2.98169,1.85394 2.98169,2.32509 0,0.40987 -0.48489,0.18662 -1.72676,-0.79502 z"
       id="path2663"
       inkscape:connector-curvature="0"
       transform="scale(0.26458333)" />
    <path
       style="opacity:1;fill:#aa4400;fill-opacity:1;fill-rule:evenodd;stroke:#000000;stroke-width:0.25348014;stroke-miterlimit:4;stroke-dasharray:none;stroke-opacity:0.00555558"
       d="m 548.20604,174.41391 c -2.04048,-1.05861 -3.88702,-3.92707 -2.91481,-4.52793 0.66672,-0.41206 3.16067,1.69957 3.93534,3.33205 0.35952,0.75764 0.37193,0.95022 0.08,1.24213 -0.29192,0.29192 -0.46254,0.28475 -1.10054,-0.0463 z"
       id="path2665"
       inkscape:connector-curvature="0"
       transform="scale(0.26458333)" />
    <path
       style="opacity:1;fill:#aa4400;fill-opacity:1;fill-rule:evenodd;stroke:#000000;stroke-width:0.25348014;stroke-miterlimit:4;stroke-dasharray:none;stroke-opacity:0.00555558"
       d="m 570.72655,251.38095 c -3.64163,-0.79286 -9.62918,-3.21533 -13.8643,-5.6093 -3.36607,-1.9027 -8.58066,-5.43083 -13.4617,-9.108 -13.07992,-9.85385 -20.75823,-17.68369 -24.29133,-24.77072 -1.64195,-3.29359 -2.14689,-5.25769 -2.15196,-8.3707 -0.0132,-8.10577 7.01447,-29.95025 11.12593,-34.58328 1.23574,-1.39251 1.33794,-1.30411 3.39695,2.93848 2.20482,4.54303 4.61573,7.82167 9.67423,13.15615 11.10188,11.70758 26.87866,23.49685 38.34674,28.65477 5.997,2.69723 10.11093,3.71347 16.66695,4.11711 4.29088,0.26419 4.80855,0.37638 4.80855,1.04216 0,0.62589 -2.86503,6.35202 -5.06764,10.12832 -8.11041,13.90507 -14.08174,20.9211 -19.06557,22.40114 -1.52779,0.4537 -4.04345,0.4553 -6.11685,0.004 z m -9.24904,-11.43009 c 1.10856,-1.4093 0.45862,-4.14172 -0.98515,-4.14172 -0.72986,0 -2.22503,1.42156 -2.41767,2.29863 -0.42013,1.91283 2.2222,3.34401 3.40282,1.84309 z m 16.97484,-1.86398 c 0.99374,-0.99375 0.44832,-2.12322 -1.1721,-2.42721 -1.1583,-0.2173 -3.86654,0.0253 -4.21915,0.37786 -0.19271,0.19271 -0.0928,0.46193 0.34562,0.9313 1.46135,1.5645 4.03,2.13368 5.04563,1.11805 z m 8.74124,-2.79214 c 0.88003,-0.73035 0.10771,-2.77566 -1.04811,-2.77566 -1.34581,0 -2.43517,2.10539 -1.5559,3.00709 0.37155,0.38104 2.04527,0.23229 2.60401,-0.23143 z m -16.33369,-4.91038 c 0,-0.80909 -0.36203,-1.7343 -0.88217,-2.25443 -0.31854,-0.31855 -0.53499,-0.35599 -0.90698,-0.15691 -0.70704,0.3784 -0.63773,1.63603 0.13262,2.40637 0.82788,0.82788 1.65653,0.83037 1.65653,0.005 z m -28.70694,-0.26123 c 0.71386,-1.0895 0.0116,-3.42492 -1.02986,-3.42492 -0.57728,0 -1.39224,1.27919 -1.39224,2.18532 0,1.62619 1.62416,2.45741 2.4221,1.2396 z m 51.4742,-4.29856 c 0.39164,-0.4719 0.14904,-1.2408 -0.81937,-2.5969 -1.36083,-1.90563 -3.50526,-2.96702 -3.90258,-1.93161 -0.35382,0.92205 1.65265,3.62496 3.34009,4.49941 0.93494,0.4845 1.00273,0.48593 1.38186,0.0291 z m -18.4579,-2.55136 c 0.82035,-0.98846 0.33553,-4.8988 -0.5728,-4.61999 -0.99039,0.30399 -1.89034,3.96909 -1.15513,4.70431 0.4238,0.42379 1.34348,0.37891 1.72793,-0.0843 z m -35.22685,-8.6912 c 0.15749,-1.11343 -3.03633,-3.82795 -4.50385,-3.82795 -1.0464,0 -0.49822,1.99727 0.91638,3.33882 0.89719,0.85086 1.76353,1.21193 2.74322,1.1433 0.58745,-0.0411 0.77848,-0.18918 0.84425,-0.65417 z m 15.18637,-1.75535 c 1.21136,-0.97491 2.60557,-3.34728 2.75707,-4.69138 0.11346,-1.00661 0.056,-1.17293 -0.54068,-1.56386 -1.49646,-0.98053 -3.49564,0.0666 -4.68985,2.45641 -1.81022,3.62258 -0.26201,6.00038 2.47346,3.79883 z m -29.37836,-14.47223 c 1.12751,-0.68745 1.86032,-1.94186 1.77495,-3.03834 -0.0621,-0.79771 -0.1509,-0.89368 -0.893,-0.96521 -1.1057,-0.10656 -2.15262,0.67247 -2.8558,2.12504 -0.9841,2.0329 0.0721,3.03805 1.97385,1.87851 z m 16.19506,-2.14346 c 1.63235,-0.75997 2.11073,-1.57476 1.48513,-2.52955 -0.84364,-1.28756 -2.46929,-0.57258 -3.54431,1.55883 -0.87506,1.73494 -0.23272,2.03775 2.05918,0.97072 z m -7.83872,-6.85665 c 0.30936,-0.21669 0.56247,-0.52091 0.56247,-0.67605 0,-0.53499 -0.83948,-1.20771 -1.5071,-1.20771 -0.89349,0 -1.2768,0.43307 -1.2768,1.44256 0,0.77496 0.0598,0.83517 0.82948,0.83517 0.45621,0 1.08259,-0.17729 1.39195,-0.39397 z m -4.38826,-11.82671 c 0.30022,-0.85897 -0.25288,-2.6471 -0.94875,-3.0672 -0.37583,-0.22689 -0.56924,-0.14895 -1.0756,0.43345 -1.19408,1.37341 -0.56205,3.56768 0.98414,3.41671 0.60674,-0.0592 0.8517,-0.24362 1.04021,-0.78296 z"
       id="path2667"
       inkscape:connector-curvature="0"
       transform="scale(0.26458333)" />
    <path
       style="opacity:1;fill:#aa4400;fill-opacity:1;fill-rule:evenodd;stroke:#000000;stroke-width:0.25348014;stroke-miterlimit:4;stroke-dasharray:none;stroke-opacity:0.00555558"
       d="m 594.01687,211.14151 c -5.14815,-1.19918 -11.96087,-3.72149 -16.89764,-6.25609 -8.10838,-4.16294 -25.20008,-17.25712 -32.85519,-25.17082 -5.26052,-5.43821 -9.59481,-12.5038 -9.59481,-15.64109 0,-2.08902 1.85679,-2.97617 6.1816,-2.95346 6.21171,0.0326 13.35517,2.49977 21.12058,7.29445 10.95479,6.76395 24.2095,17.35979 30.70203,24.54329 6.17959,6.83725 9.99618,15.87319 7.68197,18.1874 -0.53313,0.53313 -0.84709,0.6187 -2.21446,0.60352 -0.8763,-0.01 -2.73213,-0.28296 -4.12408,-0.6072 z m 1.39195,-5.196 c 1.2267,-1.2267 -0.0562,-4.25834 -1.41734,-3.34945 -1.028,0.68642 -1.13849,2.58781 -0.19356,3.33109 0.82559,0.64941 0.97811,0.65115 1.6109,0.0184 z m -15.9001,-5.45024 c -0.20195,-1.83671 -2.93671,-5.64311 -4.31293,-6.003 -0.8277,-0.21645 -0.92004,0.33645 -0.29299,1.75443 0.56391,1.2752 3.10446,4.76574 3.62712,4.98342 0.6964,0.29003 1.06136,0.016 0.9788,-0.73485 z m -7.63649,-14.64823 c 0,-0.4753 -2.20052,-2.39676 -2.96441,-2.58849 -1.35465,-0.33999 -0.97506,0.39136 1.02575,1.97632 1.27758,1.01204 1.93866,1.22079 1.93866,0.61217 z m -22.27118,-11.74642 c 0,-0.94667 -1.28329,-2.84853 -2.4831,-3.68 -1.1904,-0.82495 -2.32545,-0.89793 -2.32545,-0.14953 0,1.66577 2.66305,4.51639 4.23911,4.53769 0.45813,0.006 0.56944,-0.13223 0.56944,-0.70816 z"
       id="path2671"
       inkscape:connector-curvature="0"
       transform="scale(0.26458333)" />
    <text
       xml:space="preserve"
       style="font-style:normal;font-weight:normal;font-size:4.58611107px;line-height:1.25;font-family:sans-serif;letter-spacing:0px;word-spacing:0px;fill:#ffffff;fill-opacity:1;stroke:none;stroke-width:0.26458332"
       id="text2675"><textPath
         xlink:href="#path2374"
         id="textPath2677"
         style="font-size:4.58611107px;fill:#ffffff;stroke-width:0.26458332">       <tspan
   style="fill:#ffff00"
   id="tspan2684" /></textPath></text>
    <text
       xml:space="preserve"
       style="font-style:normal;font-weight:normal;font-size:16.93333244px;line-height:1.25;font-family:sans-serif;letter-spacing:0px;word-spacing:0px;fill:#000000;fill-opacity:1;stroke:none;stroke-width:0.26458332"
       x="143.07085"
       y="42.569492"
       id="text2682"><tspan
         sodipodi:role="line"
         id="tspan2680"
         x="143.07085"
         y="42.569492"
         style="stroke-width:0.26458332"> </tspan></text>
    <path
       style="fill:none;stroke:#000000;stroke-width:0.26458332px;stroke-linecap:butt;stroke-linejoin:miter;stroke-opacity:0.01666667"
       d="m 44.918008,209.35026 6.558825,5.49881 9.208852,6.95633 6.956329,4.24005 3.57754,1.72251 3.047534,0.92751 2.848782,0.39751 3.908795,-0.53001 4.240049,-2.12002 5.167558,-3.44504 3.047535,-2.38503 5.035055,-4.4388 4.836308,-4.9688 v 0"
       id="path3240"
       inkscape:connector-curvature="0" />
    <text
       xml:space="preserve"
       style="font-style:normal;font-weight:normal;font-size:9.87777805px;line-height:1.25;font-family:sans-serif;letter-spacing:0px;word-spacing:0px;fill:#aa0000;fill-opacity:1;stroke:none;stroke-width:0.26458332"
       id="text3244"><textPath
         xlink:href="#path3240"
         id="textPath3246"><tspan
           style="font-size:9.87777805px;fill:#aa0000;stroke-width:0.26458332"
           id="tspan3242">  kurs grafiki</tspan></textPath></text>
  </g>
</svg>
