<?xml version="1.0" standalone="no"?>
<!DOCTYPE svg PUBLIC "-//W3C//DTD SVG 20010904//EN"
 "http://www.w3.org/TR/2001/REC-SVG-20010904/DTD/svg10.dtd">
<svg version="1.0" xmlns="http://www.w3.org/2000/svg"
 width="325.000000pt" height="325.000000pt" viewBox="0 0 325.000000 325.000000"
 preserveAspectRatio="xMidYMid meet">
<metadata>
Created by potrace 1.11, written by Peter Selinger 2001-2013
</metadata>
<g transform="translate(0.000000,325.000000) scale(0.100000,-0.100000)"
fill="#000000" stroke="none">
<path d="M1800 3055 c-7 -8 -17 -15 -22 -15 -5 0 -21 -11 -36 -25 -15 -14 -32
-25 -39 -25 -6 0 -13 -3 -15 -7 -4 -11 -147 -113 -157 -113 -5 0 -12 -7 -15
-16 -4 -9 -9 -14 -12 -11 -3 2 -17 -6 -32 -20 l-27 -25 -337 3 c-307 4 -338 2
-350 -13 -16 -21 -166 -128 -179 -128 -5 0 -9 -3 -9 -7 0 -5 -17 -19 -37 -33
-20 -14 -43 -32 -52 -40 -8 -8 -17 -14 -20 -14 -3 1 -10 0 -16 -1 -5 -2 -16
-5 -24 -7 -12 -3 -14 -62 -12 -371 1 -202 -1 -367 -6 -367 -5 0 -20 -9 -33
-20 -38 -29 -322 -230 -326 -230 -2 0 -13 -9 -24 -20 -19 -19 -20 -33 -20
-335 l0 -315 201 0 201 0 -4 -200 -4 -200 158 0 158 0 0 -155 0 -154 318 -3
317 -3 80 54 c44 29 82 57 83 62 2 5 10 9 18 9 8 0 14 4 14 9 0 5 8 12 18 15
9 3 29 17 43 30 15 14 29 22 33 19 3 -3 8 2 12 11 3 9 12 16 19 16 7 0 31 20
53 45 l40 45 341 0 c204 0 341 4 341 9 0 5 13 9 29 9 25 -1 41 8 136 79 6 5
33 24 60 43 28 19 52 38 53 42 2 4 8 8 14 8 6 0 23 10 38 23 71 56 85 67 90
67 3 0 4 159 2 354 l-3 354 36 22 c19 12 41 28 48 35 7 7 27 20 45 29 18 9 32
21 32 26 0 6 5 10 10 10 6 0 16 5 23 10 47 40 135 100 147 100 21 0 46 58 31
73 -8 8 -11 99 -11 294 l0 283 -144 0 c-79 0 -164 3 -189 6 l-47 7 -2 191 -3
191 -147 3 -147 3 -3 132 -3 132 -318 3 c-203 2 -328 7 -345 14 -44 18 -59 18
-72 3z m690 -190 l0 -95 -125 0 c-69 0 -125 3 -125 8 0 4 11 14 24 22 74 47
166 114 166 121 0 5 6 9 14 9 7 0 19 7 26 15 7 8 14 15 16 15 2 0 4 -43 4 -95z
m-1526 -393 c-10 -10 -34 -27 -51 -37 -18 -11 -33 -22 -33 -26 0 -4 -8 -9 -17
-13 -10 -3 -47 -27 -83 -54 l-65 -48 -3 -222 -2 -222 -73 0 c-39 0 -96 3 -124
6 l-53 7 0 313 0 314 262 0 c253 0 261 -1 242 -18z m736 -324 l0 -323 -36 -25
c-20 -14 -47 -32 -59 -40 -13 -9 -37 -27 -55 -40 -17 -14 -46 -33 -63 -42 -17
-10 -28 -18 -23 -18 6 0 -60 -48 -106 -76 -4 -3 -8 144 -8 327 0 183 3 329 6
326 4 -4 35 14 70 38 34 25 67 45 73 45 6 0 11 4 11 9 0 5 20 22 45 38 25 15
45 31 45 36 0 4 7 7 15 7 8 0 15 5 15 12 0 6 3 9 6 6 3 -3 17 5 31 18 14 13
28 24 29 24 2 0 4 -145 4 -322z m710 7 l0 -315 -253 0 c-140 0 -288 3 -330 6
l-77 7 0 308 0 309 330 0 330 0 0 -315z m644 121 c-27 -19 -57 -41 -66 -50
-10 -9 -18 -13 -18 -10 0 3 -22 -12 -49 -35 -26 -22 -51 -38 -55 -34 -3 3 -6
1 -6 -5 0 -7 -4 -12 -10 -12 -6 0 -10 37 -10 90 l0 90 132 0 132 0 -50 -34z
m-1717 -12 c-3 -3 -12 -4 -19 -1 -8 3 -5 6 6 6 11 1 17 -2 13 -5z m-627 -599
l0 -125 -302 0 c-290 1 -302 1 -275 18 15 9 27 20 27 25 0 4 4 6 8 3 5 -3 23
8 41 24 18 17 35 30 38 30 3 0 22 12 42 27 20 16 59 43 86 62 28 19 54 40 58
48 6 10 41 13 142 13 l135 0 0 -125z m1534 31 c-65 -46 -128 -91 -139 -100
-77 -61 -44 -56 -386 -56 -359 0 -339 -13 -163 110 59 41 113 81 120 88 7 6
17 12 22 12 5 0 15 7 22 15 11 13 60 15 328 15 l315 0 -119 -84z m186 -836 l0
-300 -263 0 c-145 0 -298 3 -340 6 l-77 7 0 163 0 164 160 0 c88 0 160 3 160
8 0 4 23 20 50 37 28 16 50 33 50 37 0 4 6 8 13 8 8 0 24 11 37 25 12 13 27
22 31 19 5 -3 9 0 9 6 0 6 8 14 18 17 9 4 22 12 28 17 6 6 22 18 34 26 12 8
36 25 53 38 17 12 32 22 34 22 2 0 3 -135 3 -300z m-1720 -130 l0 -170 -92 0
c-51 0 -110 3 -130 6 l-38 7 0 163 0 164 130 0 130 0 0 -170z m990 -30 l0
-199 -28 -15 c-16 -8 -34 -22 -41 -30 -7 -9 -17 -14 -21 -11 -4 3 -10 -2 -14
-10 -3 -8 -12 -15 -20 -15 -8 0 -16 -4 -18 -8 -1 -5 -25 -23 -53 -42 -27 -18
-54 -40 -58 -47 -4 -7 -14 -13 -21 -13 -8 0 -19 -7 -26 -16 -8 -8 -22 -20 -32
-25 -17 -9 -18 3 -18 311 l0 320 175 0 175 0 0 -200z"/>
</g>
</svg>
